<svg width="185" height="62" viewBox="0 0 185 62" fill="none" xmlns="http://www.w3.org/2000/svg">
<path d="M36.0052 52.5277L29.5933 25.8396L31.7683 24.9722H31.894L37.0989 48.9945L42.0147 24.9722H42.1405L44.3155 25.8396L38.3059 51.6603L36.1309 52.5277H36.0052Z" fill="#7D8094"/>
<path d="M47.2732 52.5277V29.0978C47.2732 26.6295 48.74 25.3953 51.6735 25.3953H55.571C58.5045 25.3953 59.9713 26.6295 59.9713 29.0978V51.5756L57.5826 52.5277H57.4568V45.0804H49.7877V51.5756L47.3989 52.5277H47.2732ZM49.7877 43.1551H57.4568V29.0978C57.4568 27.8989 56.8282 27.2995 55.571 27.2995H51.6735C50.4163 27.2995 49.7877 27.8989 49.7877 29.0978V43.1551Z" fill="#7D8094"/>
<path d="M65.3681 52.1046V25.9243L67.7568 24.9722H67.8826V50.1793H76.4946V50.2851L75.4763 52.1046H65.3681Z" fill="#7D8094"/>
<path d="M82.3314 52.1046C79.3979 52.1046 77.9311 50.8704 77.9311 48.4021V25.9243L80.3199 24.9722H80.4456V48.4021C80.4456 49.601 81.0742 50.2004 82.3314 50.2004H86.2289C87.4861 50.2004 88.1147 49.601 88.1147 48.4021V25.9243L90.5035 24.9722H90.6292V48.4021C90.6292 50.8704 89.1624 52.1046 86.2289 52.1046H82.3314Z" fill="#7D8094"/>
<path d="M96.026 52.5277V29.0978C96.026 26.6295 97.4927 25.3953 100.426 25.3953H104.324C107.257 25.3953 108.724 26.6295 108.724 29.0978V51.5756L106.335 52.5277H106.21V45.0804H98.5404V51.5756L96.1517 52.5277H96.026ZM98.5404 43.1551H106.21V29.0978C106.21 27.8989 105.581 27.2995 104.324 27.2995H100.426C99.1691 27.2995 98.5404 27.8989 98.5404 29.0978V43.1551Z" fill="#7D8094"/>
<path d="M118.521 52.1046C115.588 52.1046 114.121 50.8704 114.121 48.4021V29.0978C114.121 26.6295 115.588 25.3953 118.521 25.3953H122.419C125.352 25.3953 126.819 26.6295 126.819 29.0978V30.2614L124.43 31.2135H124.304V29.0978C124.304 27.8989 123.676 27.2995 122.419 27.2995H118.521C117.264 27.2995 116.635 27.8989 116.635 29.0978V48.4021C116.635 49.601 117.264 50.2004 118.521 50.2004H122.419C123.676 50.2004 124.304 49.601 124.304 48.4021V47.2385L126.693 46.2864H126.819V48.4021C126.819 50.8704 125.352 52.1046 122.419 52.1046H118.521Z" fill="#7D8094"/>
<path d="M133.259 52.5277V27.3206H127.878V27.2148L128.897 25.3953H141.155V25.5011L140.136 27.3206H135.774V51.5756L133.385 52.5277H133.259Z" fill="#7D8094"/>
<path d="M142.843 52.5277V25.9243L145.231 24.9722H145.357V51.5756L142.968 52.5277H142.843Z" fill="#7D8094"/>
<path d="M155.154 50.2004H159.052C160.309 50.2004 160.937 49.601 160.937 48.4021V29.0978C160.937 27.8989 160.309 27.2995 159.052 27.2995H155.154C153.897 27.2995 153.268 27.8989 153.268 29.0978V48.4021C153.268 49.601 153.897 50.2004 155.154 50.2004ZM155.154 52.1046C152.221 52.1046 150.754 50.8704 150.754 48.4021V29.0978C150.754 26.6295 152.221 25.3953 155.154 25.3953H159.052C161.985 25.3953 163.452 26.6295 163.452 29.0978V48.4021C163.452 50.8704 161.985 52.1046 159.052 52.1046H155.154Z" fill="#7D8094"/>
<path d="M168.849 52.5277V29.0978C168.849 26.6295 170.315 25.3953 173.249 25.3953H177.146C180.08 25.3953 181.547 26.6295 181.547 29.0978V51.5756L179.158 52.5277H179.032V29.0978C179.032 27.8989 178.404 27.2995 177.146 27.2995H173.249C171.992 27.2995 171.363 27.8989 171.363 29.0978V51.5756L168.974 52.5277H168.849Z" fill="#7D8094"/>
<path d="M5.18023 62C2.31926 62 -6.11557e-06 59.6868 0 56.8333L0.00011655 2.45217C5.42518e-05 1.09789 1.10078 0 2.45861 0H29.2028C29.3985 0 29.5572 0.15825 29.5572 0.353462C29.5572 0.441584 29.5242 0.526527 29.4647 0.591639L27.3217 2.93527C26.3401 4.00874 24.9508 4.62043 23.4941 4.62043H9.56241C6.70144 4.62043 4.38217 6.93362 4.38217 9.78709V22.389C4.38217 25.2424 6.70144 27.5556 9.5624 27.5556H24.1628C24.3831 27.5556 24.5616 27.7337 24.5616 27.9533C24.5616 28.0143 24.5475 28.0745 24.5204 28.1292L23.2477 30.7025C22.3752 32.4665 20.5741 33.5834 18.602 33.5834H10.3795C7.60606 33.5834 5.32465 35.762 5.20416 38.5256L4.61721 51.9886C4.48909 54.9273 6.84328 57.3797 9.79255 57.3797H184.646C184.841 57.3797 185 57.5379 185 57.7331C185 57.8212 184.967 57.9062 184.907 57.9713L182.765 60.3148C181.783 61.3883 180.394 62 178.937 62H5.18023Z" fill="#4B4078"/>
<path d="M16.4835 40.9309C16.7009 40.3193 17.5682 40.3193 17.7856 40.9309L19.2976 45.1855C19.3953 45.4605 19.6561 45.6442 19.9486 45.6442H24.7048C25.3884 45.6442 25.6566 46.5286 25.0877 46.9065L21.3462 49.3918C21.0828 49.5667 20.9723 49.8978 21.078 50.1953L22.531 54.2837C22.7529 54.908 22.0498 55.4543 21.4971 55.0872L17.5174 52.4437C17.2855 52.2896 16.9836 52.2896 16.7517 52.4437L12.772 55.0872C12.2193 55.4543 11.5162 54.908 11.7381 54.2837L13.1911 50.1953C13.2968 49.8978 13.1863 49.5667 12.9229 49.3918L9.18142 46.9065C8.6125 46.5286 8.88074 45.6442 9.56429 45.6442H14.3205C14.613 45.6442 14.8738 45.4605 14.9715 45.1855L16.4835 40.9309Z" fill="#7F72C6"/>
<path d="M16.4835 9.93095C16.7009 9.3193 17.5682 9.3193 17.7856 9.93095L19.2976 14.1855C19.3953 14.4605 19.6561 14.6443 19.9486 14.6443H24.7048C25.3884 14.6443 25.6566 15.5286 25.0877 15.9065L21.3462 18.3918C21.0828 18.5668 20.9723 18.8979 21.078 19.1953L22.531 23.2837C22.7529 23.908 22.0498 24.4544 21.4971 24.0872L17.5174 21.4437C17.2855 21.2897 16.9836 21.2897 16.7517 21.4437L12.772 24.0872C12.2193 24.4544 11.5162 23.908 11.7381 23.2837L13.1911 19.1953C13.2968 18.8979 13.1863 18.5668 12.9229 18.3918L9.18142 15.9065C8.6125 15.5286 8.88074 14.6443 9.56429 14.6443H14.3205C14.613 14.6443 14.8738 14.4605 14.9715 14.1855L16.4835 9.93095Z" fill="#7F72C6"/>
</svg>
